Coordinates
version=1
nRows=5
nColumns=40
inDegrees=yes

Units are S.I. units (second, meters, Newtons, ...)
If the header above contains a line with 'inDegrees', this indicates whether rotational values are in degrees (yes) or radians (no).

endheader
time	pelvis_tilt	pelvis_list	pelvis_rotation	pelvis_tx	pelvis_ty	pelvis_tz	hip_flexion_r	hip_adduction_r	hip_rotation_r	knee_angle_r	knee_angle_r_beta	ankle_angle_r	subtalar_angle_r	mtp_angle_r	hip_flexion_l	hip_adduction_l	hip_rotation_l	knee_angle_l	knee_angle_l_beta	ankle_angle_l	subtalar_angle_l	mtp_angle_l	lumbar_extension	lumbar_bending	lumbar_rotation	arm_flex_r	arm_add_r	arm_rot_r	elbow_flex_r	pro_sup_r	wrist_flex_r	wrist_dev_r	arm_flex_l	arm_add_l	arm_rot_l	elbow_flex_l	pro_sup_l	wrist_flex_l	wrist_dev_l
      5.13000000	    -28.90447534	      4.35336530	      0.77785449	     -0.37442294	      0.67712100	     -0.93300365	     83.25063658	    -17.05535288	      0.66167765	     85.37191040	      1.49002093	     28.55736792	      0.00000000	      0.00000000	     78.04220363	     -6.10841898	     -1.58810970	     82.17425726	      1.43421135	     35.27065291	      0.00000000	      0.00000000	    -22.37335364	     -2.66325083	     -3.75448350	     11.33891896	    -48.03648358	     73.78333282	     85.41573348	     85.57428170	      0.00000000	      0.00000000	      5.38623319	    -52.47982253	     69.63385766	     92.56216100	     87.54654255	      0.00000000	      0.00000000
      5.13500000	    -28.14847459	      4.30309803	      0.15795139	     -0.37079292	      0.68260210	     -0.93118749	     81.69707657	    -16.24957386	      0.59264246	     84.62256702	      1.47694242	     28.28922992	      0.00000000	      0.00000000	     76.49307250	     -6.77429409	     -1.77352957	     81.53576412	      1.42306754	     35.03474826	      0.00000000	      0.00000000	    -21.98688030	     -2.99837518	     -3.11344321	     11.19250358	    -48.02964584	     73.30974828	     85.45035053	     85.56869136	      0.00000000	      0.00000000	      4.95168442	    -52.56313737	     68.89812534	     92.45340923	     87.53340105	      0.00000000	      0.00000000
      5.14000000	    -27.73215974	      4.22697363	      0.41942525	     -0.36798436	      0.68799169	     -0.93132304	     80.47216112	    -16.39845052	      0.43918149	     83.83539312	      1.46320364	     27.98781644	      0.00000000	      0.00000000	     75.34869152	     -6.44676333	     -1.72179499	     80.58455892	      1.40646588	     34.50818284	      0.00000000	      0.00000000	    -21.22294086	     -2.92223229	     -3.18401370	     11.09465195	    -48.25863654	     73.08272103	     85.68895171	     85.56686672	      0.00000000	      0.00000000	      4.80682086	    -52.70656681	     68.67037544	     92.54549252	     87.52715580	      0.00000000	      0.00000000
      5.14500000	    -26.30995395	      4.15239270	      0.51462677	     -0.36354385	      0.69498758	     -0.93089919	     78.07387493	    -16.63938121	     -0.00480404	     83.18341347	      1.45182445	     27.66556353	      0.00000000	      0.00000000	     73.04043510	     -6.25760058	     -1.67127125	     79.75952106	      1.39206625	     34.19503709	      0.00000000	      0.00000000	    -21.64562153	     -2.88051224	     -3.23757696	     10.83745750	    -48.39781723	     72.11942803	     86.07964516	     85.54302054	      0.00000000	      0.00000000	      4.35872320	    -52.72583087	     67.68282459	     92.49800300	     87.50319753	      0.00000000	      0.00000000
      5.15000000	    -26.86029055	      3.89739124	      0.13759993	     -0.36212219	      0.69835424	     -0.92925343	     78.05405111	    -15.79244294	     -0.07407110	     82.38565483	      1.43790093	     27.11216917	      0.00000000	      0.00000000	     73.18793644	     -6.87156032	     -1.61096579	     79.12725102	      1.38103106	     33.53780705	      0.00000000	      0.00000000	    -19.81152639	     -2.94623710	     -2.66117934	      9.94864847	    -48.74878384	     70.78557714	     87.03900870	     85.54823794	      0.00000000	      0.00000000	      3.02301222	    -53.03521837	     66.08998468	     93.02870327	     87.49990547	      0.00000000	      0.00000000
